<?xml version="1.0" encoding="UTF-8" standalone="no"?>
<svg
   id="Layer_2"
   data-name="Layer 2"
   viewBox="0 0 1313.65 237.13"
   version="1.1"
   sodipodi:docname="logo_text_light.svg"
   inkscape:version="1.3.2 (1:1.3.2+202311252150+091e20ef0f)"
   xmlns:inkscape="http://www.inkscape.org/namespaces/inkscape"
   xmlns:sodipodi="http://sodipodi.sourceforge.net/DTD/sodipodi-0.dtd"
   xmlns:xlink="http://www.w3.org/1999/xlink"
   xmlns="http://www.w3.org/2000/svg"
   xmlns:svg="http://www.w3.org/2000/svg">
  <sodipodi:namedview
     id="namedview12"
     pagecolor="#ffffff"
     bordercolor="#000000"
     borderopacity="0.25"
     inkscape:showpageshadow="2"
     inkscape:pageopacity="0.0"
     inkscape:pagecheckerboard="0"
     inkscape:deskcolor="#d1d1d1"
     inkscape:zoom="0.46816122"
     inkscape:cx="1030.6279"
     inkscape:cy="52.332399"
     inkscape:window-width="1366"
     inkscape:window-height="651"
     inkscape:window-x="0"
     inkscape:window-y="32"
     inkscape:window-maximized="1"
     inkscape:current-layer="Layer_2" />
  <defs
     id="defs4">
    <style
       id="style1">.cls-1{fill:url(#White_Black);}.cls-2{fill:url(#White_Black-2);}.cls-3{fill:url(#White_Black-3);}.cls-4{mask:url(#mask);}.cls-5{mask:url(#mask-2);}.cls-6{mask:url(#mask-3);}.cls-7{fill:#fff;}</style>
    <linearGradient
       id="White_Black"
       x1="-3091.62"
       y1="1087.01"
       x2="-3242.36"
       y2="985.74"
       gradientTransform="translate(-1237.09 -348.5) rotate(-180)"
       gradientUnits="userSpaceOnUse">
      <stop
         offset="0"
         stop-color="#fff"
         id="stop1" />
      <stop
         offset="1"
         stop-color="#231f20"
         id="stop2" />
    </linearGradient>
    <linearGradient
       id="White_Black-2"
       x1="2944.24"
       y1="1429.35"
       x2="2458.42"
       y2="1102.96"
       gradientTransform="translate(-3177.9 -3507.38) rotate(90)"
       xlink:href="#White_Black" />
    <linearGradient
       id="White_Black-3"
       x1="3265.1"
       y1="300.42"
       x2="2779.27"
       y2="-25.97"
       gradientTransform="translate(-7226.66 -1558.39)"
       xlink:href="#White_Black" />
    <mask
       id="mask"
       x="1901.8"
       y="-1460.12"
       width="168.2"
       height="109.01"
       maskUnits="userSpaceOnUse">
      <g
         transform="translate(-0.87 -59.01)"
         id="g2">
        <rect
           class="cls-1"
           x="1907.64"
           y="-1391.65"
           width="158.25"
           height="90.1"
           transform="translate(182.2 235.84) rotate(-7.12)"
           id="rect2" />
      </g>
    </mask>
    <mask
       id="mask-2"
       x="-4497.67"
       y="-1319.24"
       width="351.34"
       height="542.08"
       maskUnits="userSpaceOnUse">
      <g
         transform="translate(-0.87 -59.01)"
         id="g3">
        <rect
           class="cls-2"
           x="-4466.32"
           y="-1244.2"
           width="290.37"
           height="510.03"
           transform="translate(89.28 -543.15) rotate(-7.12)"
           id="rect3" />
      </g>
    </mask>
    <mask
       id="mask-3"
       x="-4659.48"
       y="-1778.77"
       width="542.08"
       height="351.34"
       maskUnits="userSpaceOnUse">
      <g
         transform="translate(-0.87 -59.01)"
         id="g4">
        <rect
           class="cls-3"
           x="-4642.58"
           y="-1689.28"
           width="510.03"
           height="290.37"
           transform="translate(157.54 -555.66) rotate(-7.12)"
           id="rect4" />
      </g>
    </mask>
  </defs>
  <path
     d="M 7.7234825,197.30742 Q 14.559158,169.41786 21.394833,143.98915 28.230508,118.56044 35.066183,95.319147 41.901858,71.804425 48.464106,50.203692 55.026354,28.329532 61.588602,7.8225065 h 41.014048 q 6.56225,20.5070255 13.39793,42.6546125 6.83567,22.147587 13.39792,45.662309 6.56225,23.514722 13.12449,48.943432 6.56225,25.15529 12.85107,52.22456 H 114.90687 L 106.1572,153.5591 H 55.573208 l -8.749664,43.74832 z M 62.68231,122.38842 H 99.594955 Q 97.407539,108.71707 94.673269,96.412855 91.938999,84.10864 88.657875,71.530998 85.376751,58.679929 81.275346,44.461725 77.173941,58.679929 73.892817,71.530998 70.611693,84.10864 67.877423,96.412855 65.143153,108.71707 62.68231,122.38842 Z m 111.8315,74.919 V 10.283349 q 7.65595,-1.9139885 16.95247,-2.7342695 9.56994,-1.093708 18.86646,-1.367135 9.29652,-0.546854 16.40562,-0.546854 24.33501,0 41.28748,6.5622485 16.95247,6.288821 25.70214,20.233598 9.02309,13.944777 9.02309,36.639218 0,33.904945 -20.2336,49.216865 -19.96017,15.03848 -56.59939,15.03848 h -13.67135 v 63.98192 z m 37.73292,-96.79316 h 15.31191 q 18.04619,0 27.3427,-7.109102 9.29652,-7.382529 9.29652,-24.60843 0,-16.679047 -9.29652,-23.514722 -9.02309,-6.835675 -23.78815,-6.835675 -3.55455,0 -9.56994,0.273427 -6.01539,0 -9.29652,0.546854 z m 115.38605,96.79316 V 10.283349 q 7.65595,-1.9139885 16.95247,-2.7342695 9.56995,-1.093708 18.86647,-1.367135 9.29651,-0.546854 16.40562,-0.546854 24.335,0 41.28747,6.5622485 16.95248,6.288821 25.70214,20.233598 9.02309,13.944777 9.02309,36.639218 0,33.904945 -20.2336,49.216865 -19.96017,15.03848 -56.59939,15.03848 H 365.3657 v 63.98192 z m 37.73292,-96.79316 h 15.31192 q 18.04618,0 27.3427,-7.109102 9.29651,-7.382529 9.29651,-24.60843 0,-16.679047 -9.29651,-23.514722 -9.02309,-6.835675 -23.78815,-6.835675 -3.55455,0 -9.56995,0.273427 -6.01539,0 -9.29652,0.546854 z m 117.30006,96.79316 q -3.0077,-28.43641 -5.46854,-60.42737 -2.18742,-32.26438 -3.55456,-65.349052 -1.36713,-33.084667 -2.18741,-63.7084915 h 34.72523 q -0.27343,24.0615765 -0.82028,50.0371415 -0.27343,25.975565 -0.82028,50.857422 -0.27343,24.88186 -0.27343,46.20916 3.0077,-9.84337 6.28882,-21.3273 3.28112,-11.48394 6.56225,-22.96787 3.28112,-11.483935 6.01539,-20.780453 2.73427,-9.569945 4.37483,-15.038485 h 27.61613 q 2.73427,11.757361 9.02309,33.358098 6.28882,21.60073 13.1245,46.75601 0,-21.05388 -0.54686,-45.93573 -0.27342,-24.88186 -0.54685,-50.857425 -0.27343,-26.248992 -0.54685,-50.3105685 h 34.72523 q -1.09371,30.8972515 -2.46085,63.9819185 -1.36713,33.084665 -3.28112,65.075625 -1.91399,31.99096 -4.92169,60.42737 h -31.17068 q -6.83567,-19.13989 -13.67135,-41.56091 -6.56224,-22.42101 -13.39792,-42.38118 -4.37483,12.57764 -9.29652,27.3427 -4.64826,14.49163 -9.29652,29.25669 -4.64825,14.49163 -9.02309,27.3427 z m 154.21266,0 V 7.8225065 H 751.71776 V 38.993185 h -77.37984 v 42.654612 h 67.26304 v 31.170683 h -67.26304 v 53.31826 h 83.94209 v 31.17068 z m 202.88267,2.46084 q -8.20281,0 -17.2259,-0.82028 -8.74966,-0.54685 -17.77275,-1.64056 -9.02309,-1.36714 -17.77276,-3.0077 V 10.283349 q 7.38253,-1.3671345 15.58534,-2.1874155 8.20281,-1.093708 16.67905,-1.640562 8.74966,-0.820281 16.95247,-0.820281 21.32731,0 34.99866,4.3748315 13.67135,4.374833 21.05388,11.757362 7.38253,7.109102 10.1168,15.858766 3.00769,8.749664 3.00769,17.772755 0,8.749664 -3.00769,16.679047 -3.0077,7.655956 -8.47624,13.67135 -5.46854,6.015394 -12.85107,10.116799 12.85107,4.648259 19.96017,11.757359 7.38253,7.1091 10.1168,15.58534 3.0077,8.20281 3.0077,16.95248 0,22.69444 -10.1168,35.81893 -9.84337,12.85107 -26.79585,18.31961 -16.67905,5.46854 -37.4595,5.46854 z m 3.0077,-32.81124 q 8.47624,0 16.40562,-1.91399 7.92938,-2.18741 12.85107,-7.92938 5.19511,-6.01539 5.19511,-16.95247 0,-9.29652 -4.1014,-14.76506 -3.82798,-5.74197 -11.21051,-8.47624 -7.1091,-2.73427 -16.95247,-2.73427 h -20.2336 v 51.6777 q 3.82798,0.27343 8.74966,0.82028 4.92169,0.27343 9.29652,0.27343 z M 824.72261,83.014932 h 14.76506 q 9.56994,0 15.85876,-2.73427 6.56225,-3.007697 9.84337,-8.20281 3.28113,-5.195113 3.28113,-12.577642 0,-9.023091 -3.82798,-13.397923 -3.55455,-4.648259 -9.56995,-6.015394 -6.01539,-1.640562 -13.12449,-1.640562 -4.10141,0 -8.74967,0.273427 -4.64825,0.273427 -8.47623,0.820281 z M 1093.2276,197.30742 v -31.17068 h 41.5609 V 38.993185 h -41.5609 V 7.8225065 h 120.5813 V 38.993185 h -41.014 V 166.13674 h 41.014 v 31.17068 z m 213.5464,4.1014 q -21.8742,0 -37.4595,-11.2105 -15.3119,-11.21051 -23.2413,-33.3581 -7.9294,-22.14758 -7.9294,-54.41197 0,-32.537814 8.2028,-54.411974 8.2028,-22.147587 23.5147,-33.358094 15.3119,-11.2105076 36.6393,-11.2105076 22.1475,0 37.4595,11.2105076 15.3119,11.210507 22.9678,33.358094 7.9294,21.87416 7.9294,54.411974 0,32.26439 -8.2028,54.41197 -7.9294,22.14759 -23.2413,33.3581 -15.0385,11.2105 -36.6392,11.2105 z m -0.2734,-32.81124 q 12.851,0 19.1398,-9.02309 6.5623,-9.02309 8.7497,-24.06157 2.1874,-15.03849 2.1874,-33.08467 0,-18.593037 -2.1874,-33.358095 -1.914,-15.038485 -8.4762,-23.788149 -6.2888,-9.023091 -19.4133,-9.023091 -12.8511,0 -19.4134,9.023091 -6.2888,9.023091 -8.4762,24.061576 -2.1874,14.765058 -2.1874,33.084668 0,18.31961 1.914,33.35809 2.1874,15.03849 8.7496,24.06158 6.5623,8.74966 19.4134,8.74966 z m 134.2525,28.70984 V 38.993185 H 1390.716 V 7.8225065 h 137.8072 V 38.993185 H 1478.486 V 197.30742 Z"
     id="text12"
     style="font-size:273.427px;font-family:'Ubuntu Mono';-inkscape-font-specification:'Ubuntu Mono, @wght=700';font-variation-settings:'wght' 700;fill:#ffffff;stroke-width:1.26899"
     transform="scale(0.8518646,1.1738955)"
     aria-label="APPWEB IOT" />
</svg>
